HIERARCHY
ROOT Hips
{
  OFFSET -0.722415 0.00 -5.77264
  CHANNELS 6 Xposition Yposition Zposition Zrotation Xrotation Yrotation
  JOINT LHipJoint
  {
    OFFSET 0 0 0
    CHANNELS 3 Zrotation Xrotation Yrotation
    JOINT LeftUpLeg
    {
      OFFSET 1.8 -1.4 0.085
      CHANNELS 3 Zrotation Xrotation Yrotation
      JOINT LeftLeg
      {
        OFFSET 2.215 -6 0
        CHANNELS 3 Zrotation Xrotation Yrotation
        JOINT LeftFoot
        {
          OFFSET 2.5 -6.9 0
          CHANNELS 3 Zrotation Xrotation Yrotation
          JOINT LeftToeBase
          {
            OFFSET 0.2 -0.5 1.95
            CHANNELS 3 Zrotation Xrotation Yrotation
            End Site
            {
              OFFSET 0 0 1
            }
          }
        }
      }
    }
  }
  JOINT RHipJoint
  {
    OFFSET 0 0 0
    CHANNELS 3 Zrotation Xrotation Yrotation
    JOINT RightUpLeg
    {
      OFFSET -1.8 -1.4 0.085
      CHANNELS 3 Zrotation Xrotation Yrotation
      JOINT RightLeg
      {
        OFFSET -2.215 -6 0
        CHANNELS 3 Zrotation Xrotation Yrotation
        JOINT RightFoot
        {
          OFFSET -2.5 -6.9 0
          CHANNELS 3 Zrotation Xrotation Yrotation
          JOINT RightToeBase
          {
            OFFSET -0.2 -0.5 1.95
            CHANNELS 3 Zrotation Xrotation Yrotation
            End Site
            {
              OFFSET 0 0 1
            }
          }
        }
      }
    }
  }
  JOINT LowerBack
  {
    OFFSET 0 0 0
    CHANNELS 3 Zrotation Xrotation Yrotation
    JOINT Spine
    {
      OFFSET -0.087 1.94 -0.2889
      CHANNELS 3 Zrotation Xrotation Yrotation
      JOINT Spine1
      {
        OFFSET 0 1.95 0.06
        CHANNELS 3 Zrotation Xrotation Yrotation
        JOINT Neck
        {
          OFFSET 0 0 0
          CHANNELS 3 Zrotation Xrotation Yrotation
          JOINT Neck1
          {
            OFFSET 0 1.6 0.34
            CHANNELS 3 Zrotation Xrotation Yrotation
            JOINT Head
            {
              OFFSET 0 1.667 -0.24
              CHANNELS 3 Zrotation Xrotation Yrotation
              End Site
              {
                OFFSET 0 1.686 -0.12
              }
            }
          }
        }
        JOINT LeftShoulder
        {
          OFFSET 0 0 0
          CHANNELS 3 Zrotation Xrotation Yrotation
          JOINT LeftArm
          {
            OFFSET 2.7 1.55 -0.73
            CHANNELS 3 Zrotation Xrotation Yrotation
            JOINT LeftForeArm
            {
              OFFSET 5.45 0 0
              CHANNELS 3 Zrotation Xrotation Yrotation
              JOINT LeftHand
              {
                OFFSET 3.45 0 0
                CHANNELS 3 Zrotation Xrotation Yrotation
                JOINT LeftFingerBase
                {
                  OFFSET 0 0 0
                  CHANNELS 3 Zrotation Xrotation Yrotation
                  JOINT LeftHandIndex1
                  {
                    OFFSET 0.75 0 0
                    CHANNELS 3 Zrotation Xrotation Yrotation
                    End Site
                    {
                      OFFSET 0.6 0 0
                    }
                  }
                }
                JOINT LThumb
                {
                  OFFSET 0 0 0
                  CHANNELS 3 Zrotation Xrotation Yrotation
                  End Site
                  {
                    OFFSET 0.59 0 0.59
                  }
                }
              }
            }
          }
        }
        JOINT RightShoulder
        {
          OFFSET 0 0 0
          CHANNELS 3 Zrotation Xrotation Yrotation
          JOINT RightArm
          {
            OFFSET -2.7 1.55 -0.73
            CHANNELS 3 Zrotation Xrotation Yrotation
            JOINT RightForeArm
            {
              OFFSET -5.45 0 0
              CHANNELS 3 Zrotation Xrotation Yrotation
              JOINT RightHand
              {
                OFFSET -3.45 0 0
                CHANNELS 3 Zrotation Xrotation Yrotation
                JOINT RightFingerBase
                {
                  OFFSET 0 0 0
                  CHANNELS 3 Zrotation Xrotation Yrotation
                  JOINT RightHandIndex1
                  {
                    OFFSET -0.75 0 0
                    CHANNELS 3 Zrotation Xrotation Yrotation
                    End Site
                    {
                      OFFSET -0.6 0 0
                    }
                  }
                }
                JOINT RThumb
                {
                  OFFSET 0 0 0
                  CHANNELS 3 Zrotation Xrotation Yrotation
                  End Site
                  {
                    OFFSET -0.59 0 0.59
                  }
                }
              }
            }
          }
        }
      }
    }
  }
}
MOTION
Frames:	6
Frame Time:	0.00833333
13.2651 18.7049 10.4024 5.31199 -6.0465 36.5214 -0 0 3.18055e-015 -15.1078 -1.46381 3.00916 5.09249 2.61697 6.36661 -49.1995 55.1573 45.4815 -1.59028e-015 0 -0 -0 0 3.18055e-015 13.5845 -14.7295 3.31559 2.44894 30.2239 11.6854 47.4432 44.8285 -45.3326 -6.36111e-015 -6.36111e-015 -4.37326e-015 -0 0 3.18055e-015 -5.74203 -20.9911 -2.9167 8.17002 5.9155 -3.62006 -1.11124 -32.0989 0.727635 -1.35612 4.89523 1.00903 0.174809 19.9659 1.64586 -17.6758 8.86864 -31.8643 -54.0261 -17.2363 -46.5819 -8.67039 50.064 -0.00165773 22.6317 -0.740248 -4.84687 6.8922e-009 -1.38323e-007 8.40541e-007 6.89219e-009 -1.38323e-007 8.40541e-007 -1.59028e-015 -1.59028e-015 -6.36111e-015 22.7581 11.2397 33.898 48.0322 -12.9079 39.5664 -33.6626 83.9633 34.7406 -14.1069 -0.822848 -34.7592 -1.59028e-015 0 -1.59028e-015 -1.59028e-015 -2.98177e-015 -3.18055e-015 -1.59028e-015 0 -0 
13.2875 18.6995 10.4185 5.32166 -6.11487 36.462 -7.95139e-016 7.95139e-016 3.18055e-015 -15.0042 -1.2774 3.11125 5.07348 2.64048 6.29692 -49.4725 55.0169 45.2846 4.77083e-015 -2.38542e-015 3.18055e-015 -7.95139e-016 7.95139e-016 3.18055e-015 13.5415 -14.6323 3.27569 2.45039 30.3146 11.811 47.5794 44.7863 -45.3897 -3.18055e-015 1.59028e-015 -1.19271e-015 -7.95139e-016 7.95139e-016 3.18055e-015 -5.85144 -21.4019 -3.01804 8.37727 6.21473 -3.74568 -1.14244 -32.3276 0.763158 -1.3983 4.66614 1.05071 0.19112 20.0805 1.74634 -17.7836 9.0531 -32.4302 -54.382 -16.7444 -46.9727 -8.54996 50.8148 -0.00159351 21.7788 -0.649964 -5.42943 6.8922e-009 -1.38323e-007 8.40541e-007 6.8922e-009 -1.38323e-007 8.40541e-007 8.82781e-032 -1.59028e-015 3.18055e-015 23.004 11.5005 34.4309 48.2502 -12.462 39.7943 -30.0843 83.4693 31.5257 -14.1025 -0.777374 -33.7114 -1.59028e-015 -1.98785e-015 -1.59028e-015 -0 -5.96354e-016 -0 -1.59028e-015 -1.98785e-015 -0 
13.3143 18.6962 10.4321 5.35601 -6.19555 36.4144 7.95139e-016 7.95139e-016 9.54166e-015 -14.8867 -1.06654 3.21721 4.92713 2.69828 6.15423 -49.5502 54.8185 45.0507 -1.59028e-015 3.18055e-015 3.18055e-015 7.95139e-016 7.95139e-016 9.54166e-015 13.4346 -14.3823 3.16272 2.36282 30.2737 12.3692 48.0673 44.6004 -45.5557 -6.36111e-015 1.59028e-015 -0 7.95139e-016 7.95139e-016 9.54166e-015 -5.92266 -21.7894 -3.1041 8.4905 6.49847 -3.84221 -1.14407 -32.5335 0.788605 -1.40782 4.46007 1.07455 0.161252 20.1902 1.83629 -17.7884 9.19287 -32.9536 -54.7841 -16.1371 -47.4803 -8.21171 52.2798 -0.00155168 20.9297 -0.544143 -5.05209 6.8922e-009 -1.38323e-007 8.40541e-007 6.8922e-009 -1.38323e-007 8.40541e-007 -1.59028e-015 1.19271e-015 -6.36111e-015 23.2667 11.7488 34.897 48.46 -12.0025 39.9775 -29.0056 83.2912 30.7424 -13.3878 -0.955367 -33.2618 7.95139e-016 -3.57812e-015 -3.18055e-015 7.95139e-016 -2.18663e-015 -3.18055e-015 7.95139e-016 -3.57812e-015 -3.18055e-015 
13.3435 18.694 10.4444 5.40528 -6.28508 36.3738 7.95139e-016 7.95139e-016 -0 -14.7634 -0.841081 3.32555 4.71228 2.77512 5.97207 -49.5254 54.5894 44.8124 4.77083e-015 -2.38542e-015 -9.54166e-015 7.95139e-016 7.95139e-016 -0 13.2984 -14.0538 3.01389 2.23439 30.1647 13.1339 48.7198 44.3511 -45.7756 -3.18055e-015 1.59028e-015 1.59028e-015 7.95139e-016 7.95139e-016 -0 -5.97034 -22.1666 -3.18252 8.5504 6.77784 -3.92391 -1.13105 -32.7235 0.808924 -1.40117 4.26997 1.08945 0.110991 20.298 1.92031 -17.739 9.30705 -33.4414 -55.2089 -15.483 -48.0457 -7.70483 54.2237 -0.00152555 20.0183 -0.419834 -4.2466 6.8922e-009 -1.38323e-007 8.40541e-007 6.8922e-009 -1.38323e-007 8.40541e-007 0 1.59028e-015 -0 23.5349 11.9891 35.3186 48.6665 -11.5383 40.1366 -29.1832 83.3161 31.1697 -12.3061 -1.24606 -32.9992 -7.95139e-016 -5.96354e-016 -0 0 9.93923e-016 -0 -7.95139e-016 -5.96354e-016 -0 
13.3728 18.6919 10.4571 5.458 -6.37707 36.3355 -7.95139e-016 -7.95139e-016 9.54166e-015 -14.6515 -0.611894 3.43091 4.50492 2.84597 5.81117 -49.4879 54.3673 44.598 -3.18055e-015 1.59028e-015 -3.18055e-015 -7.95139e-016 -7.95139e-016 9.54166e-015 13.1678 -13.7348 2.87265 2.12079 30.0619 13.8223 49.322 44.127 -45.9838 -3.18055e-015 3.18055e-015 -1.98785e-015 -7.95139e-016 -7.95139e-016 9.54166e-015 -5.9997 -22.5541 -3.26189 8.58093 7.06838 -4.00396 -1.1104 -32.9032 0.829209 -1.38712 4.09026 1.10222 0.0604199 20.408 2.00883 -17.6971 9.4185 -33.903 -55.6255 -14.8736 -48.5862 -7.13798 56.2172 -0.0015011 19.1814 -0.298964 -3.56935 6.8922e-009 -1.38323e-007 8.40541e-007 6.8922e-009 -1.38323e-007 8.40541e-007 4.41391e-032 7.95139e-016 -3.18055e-015 23.7983 12.2285 35.7319 48.8753 -11.0815 40.2961 -30.0128 83.4931 32.2094 -11.292 -1.50777 -32.3344 2.20695e-032 -3.97569e-016 3.18055e-015 -7.95139e-016 3.37934e-015 3.18055e-015 2.20695e-032 -3.97569e-016 3.18055e-015 
13.4 18.689 10.4715 5.50306 -6.46546 36.2947 0 0 -0 -14.567 -0.389018 3.52811 4.37834 2.88633 5.73104 -49.5234 54.1885 44.4324 -3.18055e-015 6.36111e-015 3.18055e-015 0 0 -0 13.0751 -13.5114 2.78107 2.07198 30.0424 14.1575 49.667 44.0148 -46.1184 1.37935e-031 3.97569e-015 -1.98785e-015 0 0 -0 -6.01634 -22.9729 -3.35112 8.60523 7.38653 -4.0955 -1.08797 -33.0778 0.854375 -1.37317 3.91564 1.11917 0.0279194 20.5245 2.1124 -17.7222 9.54942 -34.3492 -56.0104 -14.396 -49.0198 -6.61121 57.8514 -0.00146204 18.5632 -0.204665 -3.5698 6.8922e-009 -1.38323e-007 8.40541e-007 6.8922e-009 -1.38323e-007 8.40541e-007 -3.18055e-015 1.98785e-015 -0 24.045 12.4731 36.173 49.092 -10.6435 40.4803 -31.0328 83.7911 33.4034 -10.7778 -1.59984 -30.6562 0 1.98785e-015 -0 -1.32417e-031 1.19271e-015 6.36111e-015 0 1.98785e-015 -0 
